<?xml version="1.0" encoding="UTF-8" standalone="no"?><!DOCTYPE svg PUBLIC "-//W3C//DTD SVG 1.1//EN" "http://www.w3.org/Graphics/SVG/1.1/DTD/svg11.dtd"><svg width="100%" height="100%" viewBox="0 0 2778 2778" version="1.1" xmlns="http://www.w3.org/2000/svg" xmlns:xlink="http://www.w3.org/1999/xlink" xml:space="preserve" xmlns:serif="http://www.serif.com/" style="fill-rule:evenodd;clip-rule:evenodd;stroke-linecap:round;stroke-linejoin:round;stroke-miterlimit:1.5;"><g id="base-cloppy" serif:id="base cloppy"><g><ellipse cx="1352.82" cy="1352.7" rx="784.025" ry="695.833"/><ellipse cx="638.938" cy="1802.55" rx="548.611" ry="516.066"/><rect x="638.938" y="1778.41" width="1482.17" height="540.358"/><ellipse cx="2121.11" cy="1801.28" rx="548.611" ry="517.491"/></g><g><ellipse cx="1352.82" cy="1352.7" rx="715.094" ry="634.656" style="fill:#abd4ce;"/><ellipse cx="638.962" cy="1802.55" rx="487.452" ry="458.535" style="fill:#abd4ce;"/><rect x="637.725" y="1839.63" width="1483.39" height="421.448" style="fill:#abd4ce;"/><ellipse cx="2121.11" cy="1801.28" rx="487.452" ry="459.801" style="fill:#78b5b0;"/></g><ellipse cx="2023.59" cy="1802.05" rx="461.593" ry="459.034" style="fill:#abd4ce;"/><ellipse cx="2153.27" cy="1768.84" rx="343.244" ry="425.826" style="fill:#abd4ce;"/><rect x="2023.59" y="1343.01" width="129.681" height="169.72" style="fill:#abd4ce;"/><ellipse cx="1021.13" cy="1522.05" rx="85.92" ry="135.61"/><ellipse cx="1708.49" cy="1522.05" rx="85.92" ry="135.61"/><path d="M1562,1760.47c-43.024,63.271 -99.748,97.076 -190.434,96.429c-89.922,-0.642 -148.842,-39.954 -187.152,-97.504" style="fill:none;stroke:#000;stroke-width:77.78px;"/></g><g id="tie"><path d="M961.862,2071.38c72.652,-0.923 143.251,32.902 205.109,71.188c61.858,38.286 71.307,66.119 100.584,65.556c29.277,-0.562 22.619,-15.715 67.195,-15.298c44.576,0.416 26.658,-4.333 94.269,2.008c67.611,6.341 28.542,27.466 62.568,8.985c34.027,-18.481 60.863,-42.836 101.908,-64.354c52.948,-27.759 92.091,-45.065 136.447,-56.104c44.356,-11.04 87.642,-27.056 108.931,36.108c16.205,48.077 22.52,111.625 22.274,165.111c-0.245,53.487 -12.023,133.542 -21.985,181.243c-11.328,54.248 -21.958,91.641 -68.322,89.177c-57.324,-3.048 -152.259,-37.823 -207.777,-77.504c-55.518,-39.681 -61.632,-61.117 -119.36,-48.641c-64.674,13.976 -71.765,8.592 -137.572,-2.45c-47.281,-7.934 -47.015,2.522 -93.633,31.087c-74.304,45.529 -44.172,33.465 -112.115,63.277c-59.448,26.083 -83.219,36.817 -126.656,35.542c-47.288,-1.389 -56.399,-19.291 -70.376,-83.965c-12.911,-59.745 -17.109,-95.174 -15.518,-144.867c1.592,-49.693 3.709,-77.83 9.182,-118.601c4.455,-33.194 3.348,-136.717 64.847,-137.498Z" style="fill:#9d2418;stroke:#d43329;stroke-width:11.11px;"/><path d="M963.772,2071.36c72.653,-0.923 81.419,10.35 143.277,48.636c61.859,38.286 116.012,167.789 162.372,88.127c14.728,-25.308 60.336,-0.417 104.912,0c44.577,0.417 9.211,-6.341 76.822,0c67.612,6.341 51.148,-14.275 85.174,-32.756c34.026,-18.481 50.821,-27.464 91.866,-48.982c52.949,-27.758 56.659,-43.985 101.016,-55.025c44.356,-11.039 77.194,-32.797 98.484,30.367c16.204,48.077 34.629,45.304 34.383,98.791c-0.245,53.487 -12.023,133.542 -21.984,181.243c-11.329,54.248 -21.959,91.641 -68.323,89.177c-57.324,-3.048 -152.259,-37.823 -207.777,-77.504c-55.518,-39.681 -61.631,-61.117 -119.359,-48.642c-64.674,13.977 -71.766,8.593 -137.573,-2.449c-47.281,-7.934 -47.015,2.522 -93.633,31.087c-74.304,45.529 -44.171,33.465 -112.115,63.277c-59.447,26.083 -83.219,36.817 -126.655,35.542c-47.288,-1.389 -56.4,-19.291 -70.377,-83.965c-12.911,-59.745 -17.109,-95.175 -15.517,-144.867c1.591,-49.693 3.708,-77.83 9.181,-118.601c4.456,-33.194 4.327,-52.675 65.826,-53.456Z" style="fill:#d43329;stroke:#d43329;stroke-width:11.11px;"/><path d="M1128.24,2313.74c24.185,-0.464 64.992,2.572 91.772,4.604c26.78,2.032 25.482,0.783 39.509,1.787" style="fill:none;stroke:#9d2418;stroke-width:55.56px;"/><path d="M1614.59,2312.49c-20.615,3.458 -55.869,6.11 -79.01,7.817c-23.141,1.707 -21.878,2.583 -33.991,3.527" style="fill:none;stroke:#9d2418;stroke-width:55.56px;"/><path d="M961.862,2071.38c72.652,-0.923 143.251,32.902 205.109,71.188c61.858,38.286 71.307,66.119 100.584,65.556c29.277,-0.562 22.619,-15.715 67.195,-15.298c44.576,0.416 26.658,-4.333 94.269,2.008c67.611,6.341 28.542,27.466 62.568,8.985c34.027,-18.481 60.863,-42.836 101.908,-64.354c52.948,-27.759 92.091,-45.065 136.447,-56.104c44.356,-11.04 87.642,-27.056 108.931,36.108c16.205,48.077 22.52,111.625 22.274,165.111c-0.245,53.487 -12.023,133.542 -21.985,181.243c-11.328,54.248 -21.958,91.641 -68.322,89.177c-57.324,-3.048 -152.259,-37.823 -207.777,-77.504c-55.518,-39.681 -61.632,-61.117 -119.36,-48.641c-64.674,13.976 -71.765,8.592 -137.572,-2.45c-47.281,-7.934 -47.015,2.522 -93.633,31.087c-74.304,45.529 -44.172,33.465 -112.115,63.277c-59.448,26.083 -83.219,36.817 -126.656,35.542c-47.288,-1.389 -56.399,-19.291 -70.376,-83.965c-12.911,-59.745 -17.109,-95.174 -15.518,-144.867c1.592,-49.693 3.709,-77.83 9.182,-118.601c4.455,-33.194 3.348,-136.717 64.847,-137.498Z" style="fill:none;stroke:#000;stroke-width:55.56px;"/><path d="M1267.56,2208.13c-11.829,113.347 5.366,221.754 1.199,199.3" style="fill:none;stroke:#000;stroke-width:55.56px;"/><path d="M1479,2211.49c5.801,36.817 5.017,62.299 6.902,94.098c1.884,31.798 -10.063,138.992 -4.237,110.866" style="fill:none;stroke:#000;stroke-width:55.56px;"/></g><g><path d="M1413.32,206.109l-250.929,438.211c-0,-0 -16.204,37.075 -13.431,61.24c2.773,24.165 20.29,127.13 294.709,199.675c274.42,72.546 346.852,-4.709 382.998,-25.236c11.398,-6.473 17.179,-68.914 17.179,-68.914l27.147,-481.587" style="fill:#d33429;"/><path d="M1716.23,371.753l-84.031,543.173l103.157,2.852l86.176,-42.823l34.881,-489.238l-140.183,-13.964Z" style="fill:#ae281d;"/><path d="M1413.32,206.109l-250.929,438.211c-0,-0 -16.204,37.075 -13.431,61.24c2.773,24.165 20.29,127.13 294.709,199.675c274.42,72.546 346.852,-4.709 382.998,-25.236c11.398,-6.473 17.179,-68.914 17.179,-68.914l27.147,-481.587" style="fill:none;stroke:#000;stroke-width:55.56px;"/><path d="M1663.05,198.629c126.019,36.57 218.741,99.302 206.93,140.001c-11.81,40.699 -123.71,44.051 -249.728,7.48c-126.019,-36.57 -218.741,-99.302 -206.93,-140.001c11.81,-40.699 123.71,-44.051 249.728,-7.48Z" style="fill:#d33429;stroke:#000;stroke-width:55.56px;"/><path d="M2066.34,471.829c0,-0 -53.427,179.94 -45.362,253.67c4.362,39.874 40.276,68.705 80.15,64.343c39.874,-4.361 68.705,-40.275 64.343,-80.15c-8.065,-73.73 -99.131,-237.863 -99.131,-237.863Z"/><path d="M1643.36,252.782c39.285,-45.831 32.266,-38.653 82.038,-64.448c7.617,-3.947 62.581,-17.319 70.802,-17.863c36.98,-2.444 73.67,12.37 106.786,29.453c26.31,13.572 58.772,43.358 79.498,71.922c24.004,33.081 57.329,96.641 64.182,119.01c26.177,85.446 28.602,102.162 29.121,179.911" style="fill:none;stroke:#000;stroke-width:55.56px;"/></g></svg>